#!OML:ASF F:\VICON\USERDATA\INSTALL\rory3\rory3.ASF
:FULLY-SPECIFIED
:DEGREES
1457
root 0.0501413 17.6166 2.23417 4.95064 27.8752 -11.4024
lowerback 7.55071 4.85383 -1.53831
upperback 2.87043 6.29021 -5.86011
thorax -0.733383 3.19473 -5.71597
lowerneck -27.403 -12.5338 -13.4418
upperneck 12.8025 -14.6736 12.6263
head 10.4776 -6.07149 4.01969
rclavicle -9.54166e-015 -9.54166e-015
rhumerus 55.7222 15.3359 -8.11692
rradius 54.9386
rwrist 52.4413
rhand -65.085 -1.17103
rfingers 7.12502
rthumb -36.978 -27.2412
lclavicle -9.54166e-015 -9.54166e-015
lhumerus -30.9297 10.7469 67.4213
lradius 46.6003
lwrist -3.67606
lhand -21.0827 21.7801
lfingers 7.12502
lthumb 5.29452 51.694
rfemur -13.5528 -12.314 25.2624
rtibia 26.0078
rfoot -23.0631 -17.7063
rtoes 2.93969
lfemur -32.7589 -7.93995 -0.378052
ltibia 35.9583
lfoot -13.6401 -12.7126
ltoes -18.9304
1458
root 0.0304435 17.6118 2.23372 4.86526 27.7808 -11.5363
lowerback 7.57371 4.88669 -1.53483
upperback 2.87973 6.33315 -5.88298
thorax -0.729466 3.21665 -5.74678
lowerneck -27.3837 -12.6079 -13.4854
upperneck 12.9406 -14.7902 12.6658
head 10.548 -6.12092 4.01561
rclavicle 2.38542e-014 3.81667e-014
rhumerus 55.6953 16.0718 -7.17181
rradius 55.2282
rwrist 52.709
rhand -65.2021 -1.11055
rfingers 7.12502
rthumb -37.0888 -27.152
lclavicle 2.38542e-014 3.81667e-014
lhumerus -30.7179 10.7664 67.424
lradius 46.4281
lwrist -3.68117
lhand -21.2903 22.0136
lfingers 7.12502
lthumb 5.09404 51.9324
rfemur -13.6358 -12.5996 25.4595
rtibia 26.0927
rfoot -22.807 -17.4873
rtoes 2.49646
lfemur -32.7598 -7.98318 -0.140725
ltibia 36.0244
lfoot -13.704 -12.5757
ltoes -19.0792
1459
root 0.0112263 17.6089 2.23213 4.81652 27.6998 -11.6069
lowerback 7.5747 4.93011 -1.58581
upperback 2.88217 6.38693 -5.91311
thorax -0.72463 3.24354 -5.75392
lowerneck -27.2761 -12.6843 -13.537
upperneck 13.0219 -14.9131 12.706
head 10.585 -6.17845 4.01404
rclavicle -2.22639e-014 8.26944e-014
rhumerus 55.6011 16.7795 -6.21418
rradius 55.5788
rwrist 52.8587
rhand -65.4127 -1.52811
rfingers 7.12502
rthumb -37.2879 -27.5176
lclavicle -2.22639e-014 8.26944e-014
lhumerus -30.4648 11.0092 67.4157
lradius 46.1302
lwrist -4.08428
lhand -21.2884 21.8531
lfingers 7.12502
lthumb 5.09588 51.7719
rfemur -13.7146 -12.9544 25.5773
rtibia 26.2069
rfoot -22.6731 -17.099
rtoes 2.54884
lfemur -32.7457 -7.99912 0.0202046
ltibia 36.0777
lfoot -13.7753 -12.4458
ltoes -19.2315
1460
root -0.0104592 17.6066 2.23274 4.74447 27.6663 -11.5943
lowerback 7.56489 4.92361 -1.75041
upperback 2.93394 6.3701 -5.90806
thorax -0.685431 3.23439 -5.65202
lowerneck -27.1011 -12.717 -13.752
upperneck 12.9672 -14.9511 12.9309
head 10.5823 -6.19024 4.12378
rclavicle -1.74931e-014 -3.49861e-014
rhumerus 55.5791 17.4429 -5.33513
rradius 55.8947
rwrist 53.0037
rhand -65.6512 -1.8933
rfingers 7.12502
rthumb -37.5134 -27.8233
lclavicle -1.74931e-014 -3.49861e-014
lhumerus -30.3406 11.0919 67.4513
lradius 46.0503
lwrist -4.24095
lhand -21.1906 21.8474
lfingers 7.12502
lthumb 5.19028 51.7639
rfemur -13.7094 -13.0921 25.6091
rtibia 26.3427
rfoot -22.7445 -16.8317
rtoes 2.86721
lfemur -32.6679 -8.14019 0.107099
ltibia 36.0905
lfoot -13.8666 -12.2173
ltoes -19.7961
1461
root -0.0280716 17.6017 2.23027 4.68938 27.5434 -11.6589
lowerback 7.54077 4.91042 -1.72588
upperback 2.93242 6.35547 -5.95066
thorax -0.667157 3.22809 -5.70698
lowerneck -27.0018 -12.7041 -13.8934
upperneck 13.0439 -14.9706 13.1965
head 10.6369 -6.17987 4.23952
rclavicle -6.83819e-014 1.27222e-014
rhumerus 55.5279 18.1269 -4.74364
rradius 56.1785
rwrist 53.2713
rhand -65.9001 -2.42209
rfingers 7.12502
rthumb -37.7486 -28.2893
lclavicle -6.83819e-014 1.27222e-014
lhumerus -30.4246 10.7827 67.4276
lradius 46.287
lwrist -3.80147
lhand -21.2797 22.1995
lfingers 7.12502
lthumb 5.10427 52.118
rfemur -13.8544 -13.2731 25.7133
rtibia 26.5557
rfoot -22.5702 -16.5831
rtoes 2.54837
lfemur -32.6691 -8.21158 0.252895
ltibia 36.1218
lfoot -13.9867 -11.8793
ltoes -20.7478
1462
root -0.0477416 17.5979 2.23211 4.59817 27.3723 -11.7109
lowerback 7.57054 4.95775 -1.76678
upperback 2.91442 6.41206 -5.99212
thorax -0.696818 3.25601 -5.73611
lowerneck -26.846 -12.7277 -13.8709
upperneck 13.1588 -15.0587 13.2272
head 10.6677 -6.22091 4.23245
rclavicle -5.08889e-014 2.22639e-014
rhumerus 55.3397 18.7521 -4.28855
rradius 56.3685
rwrist 53.7065
rhand -66.0031 -1.36313
rfingers 7.12502
rthumb -37.8459 -27.2041
lclavicle -5.08889e-014 2.22639e-014
lhumerus -30.5304 10.3191 67.4135
lradius 46.5291
lwrist -3.28906
lhand -21.3301 22.3741
lfingers 7.12502
lthumb 5.0556 52.2938
rfemur -13.9262 -13.565 25.8071
rtibia 26.7488
rfoot -22.3549 -16.2182
rtoes 1.54227
lfemur -32.562 -8.23901 0.379223
ltibia 36.0831
lfoot -14.0435 -11.638
ltoes -21.3325
1463
root -0.064276 17.5904 2.2136 4.8876 26.8151 -11.8654
lowerback 7.30099 5.09716 -1.60024
upperback 2.74972 6.61194 -6.06351
thorax -0.674436 3.35633 -5.89872
lowerneck -26.6909 -12.7392 -13.8897
upperneck 13.2484 -15.1041 13.2313
head 10.6835 -6.24809 4.23125
rclavicle 7.4743e-014 -3.81667e-014
rhumerus 55.1641 19.2521 -3.90858
rradius 56.4584
rwrist 54.3317
rhand -66.2253 0.82407
rfingers 7.12502
rthumb -38.0558 -24.96
lclavicle 7.4743e-014 -3.81667e-014
lhumerus -30.4476 10.2743 67.4301
lradius 46.5164
lwrist -3.233
lhand -21.362 22.3774
lfingers 7.12502
lthumb 5.02484 52.2978
rfemur -14.6375 -13.6324 26.0538
rtibia 27.0336
rfoot -22.001 -15.7937
rtoes 0.382089
lfemur -32.8433 -7.96651 0.647487
ltibia 36.1038
lfoot -13.9775 -11.149
ltoes -21.7966
